<svg width="1200" height="630" viewBox="0 0 1200 630" xmlns="http://www.w3.org/2000/svg" font-family="Arial, sans-serif">
  <!-- Background gradient -->
  <defs>
    <linearGradient id="bg" x1="0%" y1="0%" x2="100%" y2="100%">
      <stop offset="0%" style="stop-color:#1a0533"/>
      <stop offset="100%" style="stop-color:#3b0764"/>
    </linearGradient>
    <linearGradient id="card" x1="0%" y1="0%" x2="100%" y2="100%">
      <stop offset="0%" style="stop-color:#6C3CE1"/>
      <stop offset="100%" style="stop-color:#9333ea"/>
    </linearGradient>
  </defs>
  <rect width="1200" height="630" fill="url(#bg)"/>

  <!-- Decorative circles -->
  <circle cx="1100" cy="80" r="120" fill="#6C3CE1" opacity="0.2"/>
  <circle cx="100" cy="550" r="90" fill="#9333ea" opacity="0.15"/>
  <circle cx="600" cy="315" r="400" fill="#6C3CE1" opacity="0.05"/>

  <!-- Ticket mock - left -->
  <rect x="60" y="180" width="320" height="180" rx="16" fill="url(#card)" opacity="0.9"/>
  <rect x="75" y="210" width="290" height="30" rx="6" fill="white" opacity="0.15"/>
  <rect x="75" y="250" width="290" height="30" rx="6" fill="white" opacity="0.15"/>
  <rect x="75" y="290" width="290" height="30" rx="6" fill="white" opacity="0.15"/>
  <text x="220" y="230" text-anchor="middle" fill="white" font-size="16" opacity="0.9">7</text>
  <text x="260" y="230" text-anchor="middle" fill="white" font-size="16" opacity="0.9">23</text>
  <text x="300" y="230" text-anchor="middle" fill="white" font-size="16" opacity="0.9">45</text>
  <text x="130" y="270" text-anchor="middle" fill="white" font-size="16" opacity="0.9">12</text>
  <text x="220" y="270" text-anchor="middle" fill="white" font-size="16" opacity="0.9">34</text>
  <text x="340" y="270" text-anchor="middle" fill="white" font-size="16" opacity="0.9">67</text>
  <text x="175" y="310" text-anchor="middle" fill="white" font-size="16" opacity="0.9">56</text>
  <text x="300" y="310" text-anchor="middle" fill="white" font-size="16" opacity="0.9">78</text>
  <text x="340" y="310" text-anchor="middle" fill="white" font-size="16" opacity="0.9">90</text>

  <!-- Ticket mock - right -->
  <rect x="820" y="180" width="320" height="180" rx="16" fill="url(#card)" opacity="0.9"/>
  <rect x="835" y="210" width="290" height="30" rx="6" fill="white" opacity="0.15"/>
  <rect x="835" y="250" width="290" height="30" rx="6" fill="white" opacity="0.15"/>
  <rect x="835" y="290" width="290" height="30" rx="6" fill="white" opacity="0.15"/>
  <text x="880" y="230" text-anchor="middle" fill="white" font-size="16" opacity="0.9">3</text>
  <text x="950" y="230" text-anchor="middle" fill="white" font-size="16" opacity="0.9">29</text>
  <text x="1090" y="230" text-anchor="middle" fill="white" font-size="16" opacity="0.9">51</text>
  <text x="880" y="270" text-anchor="middle" fill="white" font-size="16" opacity="0.9">16</text>
  <text x="1010" y="270" text-anchor="middle" fill="white" font-size="16" opacity="0.9">38</text>
  <text x="1090" y="270" text-anchor="middle" fill="white" font-size="16" opacity="0.9">72</text>

  <!-- Number display -->
  <circle cx="600" cy="240" r="80" fill="#6C3CE1" stroke="white" stroke-width="3" opacity="0.95"/>
  <text x="600" y="260" text-anchor="middle" fill="white" font-size="52" font-weight="bold">42</text>

  <!-- Main Title -->
  <text x="600" y="400" text-anchor="middle" fill="white" font-size="62" font-weight="bold">Tambola Housie</text>

  <!-- Tagline -->
  <text x="600" y="458" text-anchor="middle" fill="#c084fc" font-size="28">Free Ticket Generator &amp; Automated Number Caller</text>

  <!-- Pills/badges -->
  <rect x="310" y="490" width="200" height="44" rx="22" fill="#6C3CE1" opacity="0.8"/>
  <text x="410" y="518" text-anchor="middle" fill="white" font-size="18">🎟️ Free Tickets</text>

  <rect x="530" y="490" width="140" height="44" rx="22" fill="#6C3CE1" opacity="0.8"/>
  <text x="600" y="518" text-anchor="middle" fill="white" font-size="18">🔊 Audio Caller</text>

  <rect x="690" y="490" width="200" height="44" rx="22" fill="#6C3CE1" opacity="0.8"/>
  <text x="790" y="518" text-anchor="middle" fill="white" font-size="18">📱 Any Device</text>

  <!-- URL -->
  <text x="600" y="590" text-anchor="middle" fill="white" font-size="20" opacity="0.6">tambola-housie.vercel.app</text>
</svg>
